<?xml version="1.0" encoding="utf-8"?>
<!-- Generator: Adobe Illustrator 26.3.1, SVG Export Plug-In . SVG Version: 6.00 Build 0)  -->
<svg version="1.1" id="Layer_1" xmlns="http://www.w3.org/2000/svg" xmlns:xlink="http://www.w3.org/1999/xlink" x="0px" y="0px"
	 viewBox="0 0 75 57" style="enable-background:new 0 0 75 57;" xml:space="preserve">
<style type="text/css">
	.st0{fill:#644A1D;}
	.st1{fill:none;stroke:#533416;stroke-width:0.75;stroke-miterlimit:10;}
	.st2{fill:#666766;}
	.st3{fill:#E6C71F;}
</style>
<g>
	<polygon class="st0" points="56,38.2 38.4,20.3 27.1,31.4 40,44.5 36.8,47.5 24,34.5 19.3,39.2 36.8,57 46.6,47.3 32.5,33 
		36.4,29.3 50.5,43.6 	"/>
	<polygon class="st1" points="56,38.2 38.4,20.3 27.1,31.4 40,44.5 36.8,47.5 24,34.5 19.3,39.2 36.8,57 46.6,47.3 32.5,33 
		36.4,29.3 50.5,43.6 	"/>
	<polygon class="st2" points="51.2,33.3 56.4,28.2 38.8,10.1 19.1,29.5 36.7,47.5 40.1,44.3 27.2,31.2 38.3,20.3 	"/>
	<polygon class="st1" points="51.2,33.3 56.4,28.2 38.8,10.1 19.1,29.5 36.7,47.5 40.1,44.3 27.2,31.2 38.3,20.3 	"/>
	<polygon class="st3" points="51.7,23.3 56.7,18.3 38.8,0 19.1,19.4 37,37.6 41.1,33.7 28.2,20.8 38.9,10.2 	"/>
	<polygon class="st1" points="51.7,23.3 56.7,18.3 38.8,0 19.1,19.4 37,37.6 41.1,33.7 28.2,20.8 38.9,10.2 	"/>
</g>
</svg>
