<?xml version="1.0" encoding="utf-8"?>
<!-- Generator: Adobe Illustrator 26.3.1, SVG Export Plug-In . SVG Version: 6.00 Build 0)  -->
<svg version="1.1" id="Layer_1" xmlns="http://www.w3.org/2000/svg" xmlns:xlink="http://www.w3.org/1999/xlink" x="0px" y="0px"
	 viewBox="0 0 116 116" style="enable-background:new 0 0 116 116;" xml:space="preserve">
<style type="text/css">
	.st0{clip-path:url(#SVGID_00000039114016450296192980000006135394263579658414_);}
	.st1{fill:#644A1D;}
</style>
<g>
	<defs>
		<rect id="SVGID_1_" width="116" height="116"/>
	</defs>
	<clipPath id="SVGID_00000141426435763075505850000001059391621983383988_">
		<use xlink:href="#SVGID_1_"  style="overflow:visible;"/>
	</clipPath>
	<g id="_2" style="clip-path:url(#SVGID_00000141426435763075505850000001059391621983383988_);">
		<path id="Path_1" class="st1" d="M64.1,113.8h-6V35.9H35.3v16.9h-6V29.9h34.9L64.1,113.8z"/>
		<path id="Path_2" class="st1" d="M53.1,113.5h-6V63.9H24.3v16.9h-6V57.9h34.9L53.1,113.5z"/>
		<path id="Path_3" class="st1" d="M74.9,35.6h-6V19H53.1v5.5h-6V13h27.8L74.9,35.6z"/>
		<path id="Path_11" class="st1" d="M13,92v5h21v-5H13 M7,86h33v17H7V86z"/>
		<path id="Path_12" class="st1" d="M13,103v5h21v-5H13 M7,97h33v17H7V97z"/>
		<path id="Path_4" class="st1" d="M40.9,75.8H29.8v-6h11.1V75.8z"/>
		<path id="Path_5" class="st1" d="M57,13.5V1.3h6v12.2H57z"/>
		<path id="Path_6" class="st1" d="M110.9,115.1H4.7c-1.7,0-3-1.3-3-3s1.3-3,3-3h106.3c1.7,0,3,1.3,3,3S112.6,115.1,110.9,115.1
			L110.9,115.1z"/>
		<path id="Path_7" class="st1" d="M80,112.1V81.3h6v30.8L80,112.1z"/>
		<path id="Path_8" class="st1" d="M92,112.1V81.3h6v30.8L92,112.1z"/>
		<path id="Path_13" class="st1" d="M75,76v33h27V76H75 M69,70h39v45H69V70z"/>
		<path id="Path_14" class="st1" d="M103,72.3L103,72.3l-6-0.1c-0.2-4.7-4.1-8.4-8.8-8.2c-4.4,0.2-7.9,3.6-8.2,7.9l-6-0.1
			c0.3-8,7.1-14.2,15.1-13.9C96.8,58.3,102.9,64.6,103,72.3L103,72.3z"/>
		<path id="Path_15" class="st1" d="M69,64.9V41h28v14.3l-5.4-2.7V48H74.4v11.8L69,64.9L69,64.9z"/>
	</g>
</g>
</svg>
