<?xml version="1.0" encoding="utf-8"?>
<!-- Generator: Adobe Illustrator 26.3.1, SVG Export Plug-In . SVG Version: 6.00 Build 0)  -->
<svg version="1.1" id="Layer_1" xmlns="http://www.w3.org/2000/svg" xmlns:xlink="http://www.w3.org/1999/xlink" x="0px" y="0px"
	 viewBox="0 0 24 24" style="enable-background:new 0 0 24 24;" xml:space="preserve">
<style type="text/css">
	.st0{fill:#E6C71F;}
</style>
<g id="Page-1">
	<g id="search">
		<path id="Shape" class="st0" d="M10,0C4.5,0,0,4.5,0,10s4.5,10,10,10c2.4,0,4.6-0.9,6.3-2.3l6,6c0.3,0.3,0.6,0.4,1,0.3
			c0.4-0.1,0.6-0.4,0.7-0.7c0.1-0.4,0-0.7-0.3-1l-6-6c1.4-1.7,2.3-3.9,2.3-6.3C20,4.5,15.5,0,10,0z M10,2c4.4,0,8,3.6,8,8
			s-3.6,8-8,8s-8-3.6-8-8S5.6,2,10,2z"/>
	</g>
</g>
</svg>
