<?xml version="1.0" encoding="utf-8"?>
<!-- Generator: Adobe Illustrator 26.3.1, SVG Export Plug-In . SVG Version: 6.00 Build 0)  -->
<svg version="1.1" id="Capa_1" xmlns="http://www.w3.org/2000/svg" xmlns:xlink="http://www.w3.org/1999/xlink" x="0px" y="0px"
	 viewBox="0 0 243.3 243.3" style="enable-background:new 0 0 243.3 243.3;" xml:space="preserve">
<style type="text/css">
	.st0{fill:#E6C71F;}
</style>
<path class="st0" d="M242.9,93.7c-0.9-2.7-3.2-4.7-6.1-5.1l-75-10.9L128.4,9.8c-1.3-2.6-3.9-4.2-6.7-4.2c-2.9,0-5.5,1.6-6.7,4.2
	L81.4,77.7l-75,10.9C3.6,89,1.2,91,0.4,93.7c-0.9,2.7-0.1,5.7,1.9,7.7l54.3,52.9L43.7,229c-0.5,2.8,0.7,5.7,3,7.3
	c2.3,1.7,5.4,1.9,7.9,0.6l67.1-35.3l67.1,35.3c1.1,0.6,2.3,0.9,3.5,0.9c0,0,0,0,0,0c0,0,0,0,0,0c4.1,0,7.5-3.4,7.5-7.5
	c0-0.6-0.1-1.2-0.2-1.8l-12.7-74.1l54.3-52.9C243.1,99.4,243.8,96.4,242.9,93.7z M173.5,146.3c-1.8,1.7-2.6,4.2-2.2,6.6l10.9,63.6
	l-57.1-30c-2.2-1.1-4.8-1.1-7,0l-57.1,30L72,152.9c0.4-2.4-0.4-4.9-2.2-6.6l-46.2-45L87.5,92c2.4-0.4,4.6-1.9,5.6-4.1L121.7,30
	l28.6,57.8c1.1,2.2,3.2,3.7,5.6,4.1l63.8,9.3L173.5,146.3z"/>
</svg>
