<?xml version="1.0" encoding="utf-8"?>
<!-- Generator: Adobe Illustrator 26.3.1, SVG Export Plug-In . SVG Version: 6.00 Build 0)  -->
<svg version="1.1" id="Layer_1" xmlns="http://www.w3.org/2000/svg" xmlns:xlink="http://www.w3.org/1999/xlink" x="0px" y="0px"
	 viewBox="0 0 91 108" style="enable-background:new 0 0 91 108;" xml:space="preserve">
<style type="text/css">
	.st0{clip-path:url(#SVGID_00000036931253918949975560000008446340914507315131_);}
	.st1{fill:#644A1D;}
</style>
<g>
	<defs>
		<rect id="SVGID_1_" width="91" height="108"/>
	</defs>
	<clipPath id="SVGID_00000160169524832854657310000015775811372895096975_">
		<use xlink:href="#SVGID_1_"  style="overflow:visible;"/>
	</clipPath>
	<g id="Helmet_Seting" style="clip-path:url(#SVGID_00000160169524832854657310000015775811372895096975_);">
		<path id="Patvvh_1" class="st1" d="M55.7,107.2c-1,0-2-0.5-2.6-1.4l-4-6.7h-7c-1.3,1.6-3.7,4.7-5.8,7.1c-0.6,0.7-1.4,1-2.3,1
			c-6.3-0.2-13.5-4.7-16.5-10.2c-0.6-1-0.5-2.3,0.3-3.3c1.5-1.9,2.8-3.9,4-5.9l-4.3-6.7c-1.9,0-5.1,0.1-7.7-0.1
			c-1-0.1-2-0.6-2.5-1.5C5,75.4,4.4,69.1,5.4,63.7l-0.9,0c-1.6,0-3-1.4-3-3V47.8c0-1.7,1.3-3,3-3c0,0,0.1,0,0.1,0c0,0,2.8,0.1,5,0.1
			C11,10.9,36.1,7.3,36.4,7.3l0.8,6c-0.9,0.1-21.6,3.3-21.6,34.5c0,0.8-0.3,1.6-0.9,2.2c-0.9,0.9-1.1,1-7.1,0.9v6.8
			c0.7,0,1.3,0,1.6,0c1.7-0.2,3.1,1.1,3.3,2.7c0,0.2,0,0.3,0,0.5c0,0.7-0.2,1.3-0.6,1.9c-1.3,4-1.3,8.3,0,12.3
			c3.4,0.1,7.1-0.1,7.1-0.1c1.1,0,2.1,0.5,2.7,1.4l6.2,9.7c0.6,0.9,0.6,2.1,0.1,3.1c-1.3,2.2-2.6,4.4-4.1,6.5
			c2.3,2.8,5.5,4.7,9.1,5.4c2.7-3.2,5.4-6.8,5.5-6.8c0.6-0.7,1.5-1.2,2.4-1.2h10.2c1.1,0,2,0.6,2.6,1.5l4,6.6
			c4-0.2,7.7-2.1,10.1-5.3C65,92,63.1,89.4,63,89.3c-0.7-1-0.8-2.4-0.1-3.4l6.5-9.8c0.6-0.8,1.5-1.3,2.5-1.3h7.4
			c1.3-4.1,1-8.5-0.8-12.4c-0.7-1.5-0.1-3.3,1.4-4c0.6-0.3,1.3-0.4,1.9-0.2c0.3,0,0.8,0,1.3,0v-7.3c-5.7,0-5.8,0-6.3-0.1
			c-1.3-0.4-2.2-1.6-2.2-3c0.9-26.6-14.2-33-20.7-34.5l1.3-5.9c6,1.4,25.1,8.1,25.4,37.5c2.2,0,5.4,0,5.4,0c1.7,0,3,1.3,3,3
			c0,0,0,0,0,0V61c0,1.6-1.3,2.9-2.9,3l-0.8,0c1.2,5.2,0.7,11.1-1.6,15.2c-0.5,0.9-1.5,1.5-2.6,1.5h-7.7l-4.5,6.7
			c1.1,1.5,2.7,4,4.6,6.9c0.7,1.1,0.6,2.6-0.2,3.6C70.1,102.1,65.9,107.1,55.7,107.2L55.7,107.2z"/>
		<path id="Pateh_2" class="st1" d="M57.6,34.4c-1.5,0-2.7-1.1-3-2.5L50.7,8.1H39.4l-3.1,23.7c-0.2,1.6-1.7,2.8-3.4,2.6
			s-2.8-1.7-2.6-3.4l3.5-26.3c0.2-1.5,1.5-2.6,3-2.6h16.5c1.5,0,2.7,1.1,3,2.5l4.4,26.3c0.3,1.6-0.8,3.2-2.5,3.5
			C57.9,34.4,57.8,34.4,57.6,34.4L57.6,34.4z"/>
		<path id="Pat3h_3" class="st1" d="M81.5,64L8.8,63.7l0-6L81.5,58L81.5,64z"/>
		<path id="Path_44" class="st1" d="M45.5,63c-4.1,0-7.5,3.4-7.5,7.5s3.4,7.5,7.5,7.5s7.5-3.4,7.5-7.5C53,66.4,49.6,63,45.5,63
			 M45.5,58C52.4,58,58,63.6,58,70.5S52.4,83,45.5,83S33,77.4,33,70.5S38.6,58,45.5,58z"/>
	</g>
</g>
</svg>
