<?xml version="1.0" encoding="utf-8"?>
<!-- Generator: Adobe Illustrator 26.3.1, SVG Export Plug-In . SVG Version: 6.00 Build 0)  -->
<svg version="1.1" id="Layer_1" xmlns="http://www.w3.org/2000/svg" xmlns:xlink="http://www.w3.org/1999/xlink" x="0px" y="0px"
	 viewBox="0 0 308 305" style="enable-background:new 0 0 308 305;" xml:space="preserve">
<style type="text/css">
	.st0{clip-path:url(#SVGID_00000124879260512388067260000010200894576132152509_);}
	.st1{fill:#644A1D;}
</style>
<g>
	<defs>
		<rect id="SVGID_1_" width="308" height="305"/>
	</defs>
	<clipPath id="SVGID_00000049941035252999878130000001711755888150687403_">
		<use xlink:href="#SVGID_1_"  style="overflow:visible;"/>
	</clipPath>
	<g id="hOUSE_TasewF" style="clip-path:url(#SVGID_00000049941035252999878130000001711755888150687403_);">
		<path id="Path_1sfggdf" class="st1" d="M291,217.3c-0.7,0-1.3-0.2-1.8-0.6l-88.4-68.7l-87.7,68.1c-1.2,1-3,0.8-4-0.3l-10.7-11.5
			c-1.1-1.2-1.1-3.1,0.2-4.2c0.1-0.1,0.1-0.1,0.2-0.2l100.2-76c1.1-0.8,2.6-0.8,3.6,0l99.7,76.3c1.3,1,1.6,2.9,0.6,4.2
			c0,0,0,0,0,0.1l-9.5,11.8C292.7,216.9,291.9,217.3,291,217.3z M200.8,141.1c0.7,0,1.3,0.2,1.8,0.6l87.9,68.3l5.7-7.1l-95.5-73
			L105,202.5l6.6,7.1l87.4-67.9C199.5,141.4,200.1,141.1,200.8,141.1L200.8,141.1z"/>
		<path id="Path_ew2" class="st1" d="M196,106.3c-0.7,0-1.3-0.2-1.8-0.6l-88.4-68.7l-87.7,68.1c-1.2,1-3,0.8-4-0.3L3.3,93.2
			c-1.1-1.2-1.1-3.1,0.2-4.2c0.1-0.1,0.1-0.1,0.2-0.2l100.2-76c1.1-0.8,2.6-0.8,3.6,0l99.7,76.3c1.3,1,1.6,2.9,0.6,4.2
			c0,0,0,0,0,0.1l-9.5,11.8C197.7,105.9,196.9,106.3,196,106.3z M105.8,30.1c0.7,0,1.3,0.2,1.8,0.6l87.9,68.3l5.7-7.1l-95.5-73
			L10,91.5l6.6,7.1l87.4-67.9C104.5,30.4,105.1,30.1,105.8,30.1L105.8,30.1z"/>
		<path id="Path_sdfg3" class="st1" d="M272,296.7h-6V196.4h6V296.7z"/>
		<path id="Path_fa4" class="st1" d="M175,149.7c-1.7,0-3-1.3-3-3v-23.4c0-1.7,1.3-3,3-3s3,1.3,3,3v23.4
			C178,148.3,176.7,149.7,175,149.7C175,149.7,175,149.7,175,149.7z"/>
		<path id="Path_5ss" class="st1" d="M175,107.4c-1.7,0-3-1.3-3-3V86.3c0-1.7,1.3-3,3-3s3,1.3,3,3v18.1
			C178,106.1,176.7,107.4,175,107.4z"/>
		<path id="Path_6ewewq" class="st1" d="M35.6,240.3c-1.7,0-3-1.3-3-3v-148c0-1.7,1.3-3,3-3s3,1.3,3,3v148
			C38.6,239,37.3,240.3,35.6,240.3z"/>
		<g id="Group_1dfg" transform="translate(-815 -381)">
			<path id="Path_7wr" class="st1" d="M850.6,450.1c-1.7,0-3-1.3-3-3v-39.4c0-1.7,1.3-3,3-3s3,1.3,3,3v39.4
				C853.6,448.8,852.3,450.1,850.6,450.1z"/>
			<path id="Path_8jfj" class="st1" d="M882.6,425.7c-1.7,0-3-1.3-3-3v-14.6c0-1.7,1.3-3,3-3s3,1.3,3,3v14.6
				C885.6,424.4,884.3,425.7,882.6,425.7z"/>
		</g>
		<path id="Path_1gsf5" class="st1" d="M38,11c-3.3,0-6,2.7-6,6s2.7,6,6,6h26c3.3,0,6-2.7,6-6s-2.7-6-6-6H38 M38,5h26
			c6.6,0,12,5.4,12,12s-5.4,12-12,12H38c-6.6,0-12-5.4-12-12S31.4,5,38,5z"/>
		<path id="Path_16dfgb" class="st1" d="M84,83v18h18V83H84 M79,78h28v28H79V78z"/>
		<path id="Path_17sdv" class="st1" d="M107,83v18h19V83H107 M102,78h29v28h-29V78z"/>
		<path id="Path_184ds" class="st1" d="M84,106v18h18v-18H84 M79,101h28v28H79V101z"/>
		<path id="Path_1ds9" class="st1" d="M107,106v18h19v-18H107 M102,101h29v28h-29V101z"/>
		<path id="Path_2sgf0" class="st1" d="M84,129v18h18v-18H84 M79,124h28v28H79V124z"/>
		<path id="Path_21dfger" class="st1" d="M107,129v18h19v-18H107 M102,124h29v28h-29V124z"/>
		<path id="Path_fgdjbb9" class="st1" d="M175,299.7c-1.7,0-3-1.3-3-3v-77.5c0-1.7,1.3-3,3-3h49.9c1.7,0,3,1.3,3,3v45.2
			c0,1.7-1.3,3-3,3s-3-1.3-3-3v-42.2H178v74.5C178,298.3,176.7,299.7,175,299.7z"/>
		<path id="Path_10w" class="st1" d="M224.9,298.4c-1.7,0-3-1.3-3-3v-18.2c0-1.7,1.3-3,3-3s3,1.3,3,3v18.2
			C227.9,297.1,226.5,298.4,224.9,298.4z"/>
		<path id="Path_116" class="st1" d="M289.1,299.7H7.5c-1.7,0-3-1.3-3-3V277c0-1.7,1.3-3,3-3h47.3c1.7,0,3,1.3,3,3s-1.3,3-3,3H10.5
			v13.7h278.7c1.7,0,3,1.3,3,3S290.8,299.7,289.1,299.7L289.1,299.7z"/>
		<path id="Path_12dfg" class="st1" d="M132.4,299.1c-1.7,0-3-1.3-3-3v-15.9H73.6c-1.7,0-3-1.3-3-3s1.3-3,3-3h58.8c1.7,0,3,1.3,3,3
			v18.9C135.4,297.8,134.1,299.1,132.4,299.1z"/>
		<path id="Path_2c2" class="st1" d="M179,249h5v14h-5V249z"/>
		<path id="Path_123" class="st1" d="M124.9,277.4l-5.9-0.8c0.8-5.3-1-21.1-9.7-26.8c-6.1-4-14.8-2.5-26,4.5l-3.2-5.1
			c13.3-8.3,24.2-9.8,32.4-4.4C124.3,252.4,125.7,271.6,124.9,277.4z"/>
		<path id="Path_1fsdy4" class="st1" d="M12.9,277.2h-6v-13.3c0-0.6,0.2-1.1,0.4-1.6c2.6-4.2,6.4-6.2,9.8-8c1.8-0.9,3.6-1.9,5.1-3.2
			l1.5-5.9c0.1-0.3,0.2-0.6,0.4-0.9c4-5.9,13.6-9.2,22.8-7.7c8,1.1,14.8,6.3,17.9,13.8c3.3-1.2,8.7-2.4,13.3-0.6
			c7,2.8,9.1,6.6,11.8,12.8c0.2,0.4,0.3,0.8,0.3,1.2v11.6h-6v-10.9c-2.3-5-3.5-7.2-8.2-9.1c-3.9-1.5-9.6,0.7-11.5,1.6
			c-1.5,0.8-3.3,0.2-4-1.3c-0.1-0.2-0.2-0.4-0.2-0.6c-1.7-6.7-7.3-11.7-14.2-12.7c-7.2-1.2-14,1.5-16.6,4.7l-1.6,6.1
			c-0.1,0.5-0.4,0.9-0.7,1.3c-2.1,2-4.6,3.7-7.2,4.9c-2.7,1.4-5.3,2.7-7,5.1L12.9,277.2z"/>
	</g>
</g>
</svg>
