<?xml version="1.0" encoding="utf-8"?>
<!-- Generator: Adobe Illustrator 26.3.1, SVG Export Plug-In . SVG Version: 6.00 Build 0)  -->
<svg version="1.1" id="Layer_1" xmlns="http://www.w3.org/2000/svg" xmlns:xlink="http://www.w3.org/1999/xlink" x="0px" y="0px"
	 viewBox="0 0 173 173" style="enable-background:new 0 0 173 173;" xml:space="preserve">
<style type="text/css">
	.st0{clip-path:url(#SVGID_00000064317805389162157580000015591938218337715084_);}
	.st1{fill:#644A1D;}
</style>
<g>
	<defs>
		<rect id="SVGID_1_" width="173" height="173"/>
	</defs>
	<clipPath id="SVGID_00000111179342975671805710000007413368722461405616_">
		<use xlink:href="#SVGID_1_"  style="overflow:visible;"/>
	</clipPath>
	<g id="Building" style="clip-path:url(#SVGID_00000111179342975671805710000007413368722461405616_);">
		<path id="Path_28" class="st1" d="M15,106v58.7h60V106H15 M9,100h72v70.7H9V100z"/>
		<path id="Path_29" class="st1" d="M122,83l0,81.5h38V83H122 M116,77h50v93.5h-50L116,77z"/>
		<path id="Patdddh_11" class="st1" d="M100.6,65.2h-14c-1.7,0-3-1.3-3-3s1.3-3,3-3h14c1.7,0,3,1.3,3,3S102.3,65.2,100.6,65.2z"/>
		<path id="Pdfdath_12" class="st1" d="M100.6,169.9c-1.7,0-3-1.3-3-3V44.1H52.3v33.3c0,1.7-1.3,3-3,3s-3-1.3-3-3V38.1h57.3v128.8
			C103.6,168.6,102.3,169.9,100.6,169.9z"/>
		<path id="Path_1bb4" class="st1" d="M49.5,91.7c-1.7,0-3.1-1.3-3.1-3c-0.1-1.6,1.2-2.9,2.8-3c0,0,0,0,0.1,0h0.2c1.7,0,3,1.3,3,3
			S51.1,91.7,49.5,91.7L49.5,91.7z"/>
		<path id="Path_1t5" class="st1" d="M100.6,83.2h-14c-1.7,0-3-1.3-3-3s1.3-3,3-3h14c1.7,0,3,1.3,3,3S102.3,83.2,100.6,83.2z"/>
		<path id="Path_16" class="st1" d="M100.6,101.2h-14c-1.7,0-3-1.3-3-3s1.3-3,3-3h14c1.7,0,3,1.3,3,3S102.3,101.2,100.6,101.2z"/>
		<path id="Path_17" class="st1" d="M100.6,119.2h-14c-1.7,0-3-1.3-3-3s1.3-3,3-3h14c1.7,0,3,1.3,3,3S102.3,119.2,100.6,119.2z"/>
		<path id="Path_18" class="st1" d="M100.6,137.2h-14c-1.7,0-3-1.3-3-3s1.3-3,3-3h14c1.7,0,3,1.3,3,3S102.3,137.2,100.6,137.2z"/>
		<path id="Path_19" class="st1" d="M100.6,155.2h-14c-1.7,0-3-1.3-3-3s1.3-3,3-3h14c1.7,0,3,1.3,3,3S102.3,155.2,100.6,155.2z"/>
		<path id="Path_2dfg3" class="st1" d="M142.9,81.4c-1.7,0-3-1.3-3-3v-42L89.7,8.9v30.6c0,1.7-1.3,3-3,3s-3-1.3-3-3V3.8
			c0-1.7,1.3-3,3-3c0.5,0,1,0.1,1.4,0.4L144.3,32c1,0.5,1.6,1.5,1.6,2.6v43.8C145.9,80.1,144.5,81.4,142.9,81.4z"/>
		<path id="Path_25" class="st1" d="M111.9,48.7v-8.1c0-1.7,1.3-3,3-3s3,1.3,3,3v8.1c0,1.7-1.3,3-3,3S111.9,50.3,111.9,48.7
			L111.9,48.7z"/>
		<path id="Path_27" class="st1" d="M111.9,68.7v-8.1c0-1.7,1.3-3,3-3s3,1.3,3,3v8.1c0,1.7-1.3,3-3,3S111.9,70.3,111.9,68.7
			L111.9,68.7z"/>
		<g id="Group_1" transform="translate(-896 -458)">
			<path id="Rectangle_8" class="st1" d="M951,602v8h7v-8H951 M946,597h17v18h-17V597z"/>
			<path id="Rectangle_9" class="st1" d="M925,602v8h7v-8H925 M920,597h17v18h-17V597z"/>
			<path id="Rectangle_10" class="st1" d="M951,577v8h7v-8H951 M946,572h17v18h-17V572z"/>
			<path id="Rectangle_11" class="st1" d="M925,577v8h7v-8H925 M920,572h17v18h-17V572z"/>
		</g>
		<path id="Path_20" class="st1" d="M162.6,138.7h-22.1c-1.7,0-3-1.3-3-3s1.3-3,3-3h22.1c1.7,0,3,1.3,3,3S164.2,138.7,162.6,138.7z"
			/>
		<path id="Path_21" class="st1" d="M162.6,120.7h-22.1c-1.7,0-3-1.3-3-3s1.3-3,3-3h22.1c1.7,0,3,1.3,3,3S164.2,120.7,162.6,120.7z"
			/>
		<path id="Path_22" class="st1" d="M162.6,102.7h-22.1c-1.7,0-3-1.3-3-3s1.3-3,3-3h22.1c1.7,0,3,1.3,3,3S164.2,102.7,162.6,102.7z"
			/>
		<path id="Pathfffd_24" class="st1" d="M125.9,48.7v-8.1c0-1.7,1.3-3,3-3s3,1.3,3,3v8.1c0,1.7-1.3,3-3,3S125.9,50.3,125.9,48.7
			L125.9,48.7z"/>
		<path id="Path_26" class="st1" d="M125.9,68.7v-8.1c0-1.7,1.3-3,3-3s3,1.3,3,3v8.1c0,1.7-1.3,3-3,3S125.9,70.3,125.9,68.7
			L125.9,68.7z"/>
		<path id="Pathasf_1" class="st1" d="M169,170.7H4.2c-1.7,0-3-1.3-3-3s1.3-3,3-3H169c1.7,0,3,1.3,3,3S170.7,170.7,169,170.7
			L169,170.7z"/>
		<path id="Pddath_2" class="st1" d="M162.6,156.7h-13.3c-1.7,0-3-1.3-3-3s1.3-3,3-3h13.3c1.7,0,3,1.3,3,3S164.2,156.7,162.6,156.7z
			"/>
		<path id="Path_yy13" class="st1" d="M133.5,156.7c-1.7,0-3.1-1.3-3.1-3c-0.1-1.6,1.2-2.9,2.8-3c0,0,0,0,0.1,0h0.2c1.7,0,3,1.3,3,3
			S135.1,156.7,133.5,156.7L133.5,156.7z"/>
	</g>
</g>
</svg>
