<?xml version="1.0" encoding="utf-8"?>
<!-- Generator: Adobe Illustrator 26.3.1, SVG Export Plug-In . SVG Version: 6.00 Build 0)  -->
<svg version="1.1" id="Layer_1" xmlns="http://www.w3.org/2000/svg" xmlns:xlink="http://www.w3.org/1999/xlink" x="0px" y="0px"
	 viewBox="0 0 124 124" style="enable-background:new 0 0 124 124;" xml:space="preserve">
<style type="text/css">
	.st0{clip-path:url(#SVGID_00000036938514406830923490000009873028704350054785_);}
	.st1{fill:#644A1D;}
</style>
<g>
	<defs>
		<rect id="SVGID_1_" width="124" height="124"/>
	</defs>
	<clipPath id="SVGID_00000078027105684295185190000016500953268124933818_">
		<use xlink:href="#SVGID_1_"  style="overflow:visible;"/>
	</clipPath>
	<g id="_3" style="clip-path:url(#SVGID_00000078027105684295185190000016500953268124933818_);">
		<path id="Path_1sdfa2" class="st1" d="M68,98v6h6v-6H68 M62,92h18v18H62V92z"/>
		<path id="Path_1rrre3" class="st1" d="M93,98v6h6v-6H93 M87,92h18v18H87V92z"/>
		<path id="Path_2a" class="st1" d="M25.5,120.3l-6,0L20.3,7.3c0-1.3,0.4-5.4,3.5-6.5c3.2-1.1,5.8,2,6.6,3c1.6,2,3.2,5.3,5.4,10
			l2.3,4.7l3.1,0.5c0.8,0.1,1.6,0.6,2,1.4l6.4,10.4c0.3,0.5,0.5,1,0.5,1.6v9.8c-0.1,1.9-1,3.7-2.4,5c-1.7,1.4-3.9,2.1-6.1,1.8
			c-0.1,0-0.1,0-0.2,0c-1.3-0.1-9.2,0-15.4,0L25.5,120.3z M34.8,43c2.4-0.1,4.8,0,7.3,0.2l0-0.1c1.7,0.1,2-0.5,2.1-1.1l0-8.7
			l-5.3-8.5l-3.3-0.6c-0.9-0.2-1.8-0.8-2.2-1.6l-3-6.1c-1.7-3.5-3-6.3-4.1-8l-0.3,34.6C29.7,43.1,32.6,43,34.8,43z"/>
		<path id="Path_11dsfsdfs" class="st1" d="M8,24c-0.6,0-1,0.4-1,1v5c0,0.6,0.4,1,1,1h12v-7H8 M8,18h18v19H8c-3.9,0-7-3.1-7-7v-5
			C1,21.1,4.1,18,8,18z"/>
		<path id="Path_dfg3" class="st1" d="M77.3,37.5c-8.6,0-18.9,0-31.4,0l0-6c18.3,0,64.9,0.1,70.3,0c0.4-0.1,0.7-0.3,1-0.6
			c-0.4,0.3-2.2-1-3.8-1.8l-7.8-4.4H22.5v-6h84.7l9,5.1c2,0.9,7,3.8,6.9,7.9c-0.1,2.4-1.8,4.3-5.1,5.6l-0.2-0.4
			C114.7,37.4,105.7,37.5,77.3,37.5z"/>
		<path id="Padfgdth_4" class="st1" d="M36.9,120.6h-6V47.5h6V120.6z"/>
		<path id="Path_ff5" class="st1" d="M55.2,118.2h-6V67.8h18.4v12.1h6.4V49.1h6v36.8H61.6V73.8h-6.4V118.2z"/>
		<path id="Path_asdf6" class="st1" d="M116.9,118.2h-6V73.8h-6.4v12.1H86.2V55.4h6v24.5h6.4V67.8h18.4L116.9,118.2z"/>
		<path id="Path_ff7" class="st1" d="M61.7,69.1h-6V55.4h6V69.1z"/>
		<path id="Patdh_10" class="st1" d="M78.4,73.8v-6h8.7v6H78.4z"/>
		<path id="Patsdfgdfh_8" class="st1" d="M110.7,70.1h-6v-8.7h6V70.1z"/>
		<path id="Path_rtytr9" class="st1" d="M110.7,56.1h-6V34.5h6V56.1z"/>
		<path id="Pathgg_1" class="st1" d="M120,122.7H3.4c-1.7,0-3-1.3-3-3s1.3-3,3-3l0,0H120c1.7,0,3,1.3,3,3S121.6,122.7,120,122.7z"/>
	</g>
</g>
</svg>
