<?xml version="1.0" encoding="UTF-8"?><svg id="Layer_2" xmlns="http://www.w3.org/2000/svg" viewBox="0 0 86.31 129.56"><defs><style>.cls-1{fill:#886929;}.cls-1,.cls-2,.cls-3{stroke:#533312;stroke-miterlimit:10;stroke-width:2px;}.cls-2{fill:#f5e004;}.cls-3{fill:#6a491c;}</style></defs><g id="Layer_13"><g><polygon class="cls-3" points="84.16 85.95 44.87 45.94 19.54 70.81 48.24 100.03 41.17 106.97 12.48 77.75 1.9 88.14 41.19 128.15 63.19 106.54 31.58 74.35 42.28 63.84 73.89 96.03 84.16 85.95"/><polygon class="cls-2" points="73.42 75.09 84.18 64.51 44.49 24.09 1.41 66.39 41.11 106.81 52.61 95.52 23.94 66.32 44.74 45.89 73.42 75.09"/><polygon class="cls-1" points="73.53 53.59 84.89 42.43 44.61 1.41 1.54 43.71 41.82 84.73 52.73 74.02 24.05 44.83 44.86 24.39 73.53 53.59"/></g></g></svg>