<?xml version="1.0" encoding="utf-8"?>
<!-- Generator: Adobe Illustrator 26.3.1, SVG Export Plug-In . SVG Version: 6.00 Build 0)  -->
<svg version="1.1" id="Layer_1" xmlns="http://www.w3.org/2000/svg" xmlns:xlink="http://www.w3.org/1999/xlink" x="0px" y="0px"
	 viewBox="0 0 161 151" style="enable-background:new 0 0 161 151;" xml:space="preserve">
<style type="text/css">
	.st0{clip-path:url(#SVGID_00000150806466849463548860000017597207611502612884_);}
	.st1{fill:#644A1D;}
</style>
<g>
	<defs>
		<rect id="SVGID_1_" width="161" height="151"/>
	</defs>
	<clipPath id="SVGID_00000134953595329335204470000002057487101388619663_">
		<use xlink:href="#SVGID_1_"  style="overflow:visible;"/>
	</clipPath>
	<g id="Construction" style="clip-path:url(#SVGID_00000134953595329335204470000002057487101388619663_);">
		<path id="Patsdfh_1" class="st1" d="M148.9,126.3h-30.3V1.2h30.3V126.3z M124.6,120.3h18.3V7.2h-18.3V120.3z"/>
		<path id="Pa2th_2" class="st1" d="M123.4,124.2c-1.7,0-3-1.3-3-3c0-0.8,0.3-1.6,0.9-2.1l20-19.5l-22.1-22.1
			c-1.2-1.2-1.2-3.1,0-4.2c0,0,0,0,0,0l22.1-21.6l-22.2-23c-1.2-1.2-1.1-3.1,0.1-4.2c0,0,0,0,0.1-0.1l18.6-17H98.3c-1.7,0-3-1.3-3-3
			s1.3-3,3-3h47.3c1.7,0,3,1.3,3,3c0,0.8-0.4,1.6-1,2.2l-22,20.1l22.1,22.9c1.1,1.2,1.1,3.1-0.1,4.2l-22.1,21.5l22.1,22.1
			c1.2,1.2,1.2,3.1,0,4.2c0,0,0,0,0,0l-22.2,21.6C124.9,123.9,124.2,124.2,123.4,124.2z"/>
		<path id="P3ath_3" class="st1" d="M120.8,18.6H37.1c-1.7,0-3-1.3-3-3V4.2c0-1.7,1.3-3,3-3h35.5c1.7,0,3,1.3,3,3s-1.3,3-3,3l0,0
			H40.1v5.4h80.7c1.7,0,3,1.3,3,3S122.5,18.6,120.8,18.6z"/>
		<path id="Pa44th_4" class="st1" d="M86.2,7.2c-1.7,0-3.1-1.3-3.2-3c-0.1-1.6,1.1-2.9,2.7-3c0,0,0.1,0,0.1,0h0.4c1.7,0,3,1.3,3,3
			S87.8,7.2,86.2,7.2L86.2,7.2z"/>
		<path id="Path_5" class="st1" d="M80,60.7H21.2c-1.7,0-3-1.3-3-3V44.1c0-1.7,1.3-3,3-3h25.7V25.2c0-1.7,1.3-3,3-3s3,1.3,3,3v15.9
			H80c1.7,0,3,1.3,3,3v13.7C83,59.4,81.6,60.7,80,60.7z M24.2,54.7H77v-7.7H52.3c-0.8-0.3-1.7-0.3-2.5,0H24.2L24.2,54.7z"/>
		<path id="Path_6" class="st1" d="M58.2,112.2c-1.7,0-3.1-1.3-3.2-3c-0.1-1.6,1.1-2.9,2.7-3c0,0,0.1,0,0.1,0h0.4c1.7,0,3,1.3,3,3
			S59.8,112.2,58.2,112.2L58.2,112.2z"/>
		<path id="Path_7" class="st1" d="M159.3,148.2h-51.8l0-3c-0.1-13.9-0.2-16,0.5-17c2.4-4.8,7.3-7.9,12.6-8.1h25.9
			c5.4,0.1,10.3,3.3,12.4,8.3c0.6,1,0.5,3.5,0.4,16.8L159.3,148.2z M113.4,142.2h39.9c0.1-5.1,0.1-10.1,0-11.5
			c-1.2-2.7-3.9-4.5-6.8-4.5h-25.9c-3,0.2-5.8,2-7.2,4.6C113.3,132.8,113.4,138.6,113.4,142.2z"/>
		<path id="Path_8" class="st1" d="M45.2,112.2h-40c-1.7,0-3-1.3-3-3s1.3-3,3-3h40c1.7,0,3,1.3,3,3S46.8,112.2,45.2,112.2z"/>
		<path id="Path_9" class="st1" d="M24.2,144.7V94.2c0-1.7,1.3-3,3-3s3,1.3,3,3v50.5c0,1.7-1.3,3-3,3S24.2,146.4,24.2,144.7
			L24.2,144.7z"/>
		<path id="Path_10" class="st1" d="M70.2,144.7V94.2c0-1.7,1.3-3,3-3s3,1.3,3,3v50.5c0,1.7-1.3,3-3,3S70.2,146.4,70.2,144.7
			L70.2,144.7z"/>
		<path id="Patsdfsdh_11" class="st1" d="M91.2,144.7V94.2c0-1.7,1.3-3,3-3s3,1.3,3,3v50.5c0,1.7-1.3,3-3,3S91.2,146.4,91.2,144.7
			L91.2,144.7z"/>
		<path id="Path_12sdf" class="st1" d="M2.2,144.7V94.2c0-1.7,1.3-3,3-3s3,1.3,3,3v50.5c0,1.7-1.3,3-3,3S2.2,146.4,2.2,144.7
			L2.2,144.7z"/>
		<path id="Patsdddddh_13" class="st1" d="M94.2,132.2h-89c-1.7,0-3-1.3-3-3s1.3-3,3-3h89c1.7,0,3,1.3,3,3S95.8,132.2,94.2,132.2z"
			/>
		<path id="Patsdfh_14" class="st1" d="M94.2,148.2h-89c-1.7,0-3-1.3-3-3s1.3-3,3-3h89c1.7,0,3,1.3,3,3S95.8,148.2,94.2,148.2z"/>
		<path id="Path_1sd5" class="st1" d="M94.2,96.2h-89c-1.7,0-3-1.3-3-3c0-1.2,0.7-2.3,1.8-2.8l43.7-19c0.8-0.3,1.6-0.3,2.4,0
			l45.3,19c1.5,0.6,2.2,2.4,1.6,3.9C96.5,95.5,95.4,96.2,94.2,96.2L94.2,96.2z M19.5,90.2h59.7L48.8,77.5L19.5,90.2z"/>
	</g>
</g>
</svg>
